<mxfile host="app.diagrams.net" modified="2023-10-24T20:24:13.492Z" agent="Mozilla/5.0 (Windows NT 10.0; Win64; x64) AppleWebKit/537.36 (KHTML, like Gecko) Chrome/118.0.0.0 Safari/537.36" etag="-DRuEWnZFxApgPmVQxaW" version="22.0.7" type="device">
  <diagram name="Page-1" id="c37626ed-c26b-45fb-9056-f9ebc6bb27b6">
    <mxGraphModel dx="2938" dy="1817" grid="1" gridSize="10" guides="1" tooltips="1" connect="1" arrows="1" fold="1" page="1" pageScale="1" pageWidth="1100" pageHeight="850" background="none" math="0" shadow="0">
      <root>
        <mxCell id="0" />
        <mxCell id="1" parent="0" />
        <mxCell id="BFUSjsGuw__ukXtsEylR-2" value="Головный офис 192.168.0.0/21" style="swimlane;whiteSpace=wrap;html=1;" parent="1" vertex="1">
          <mxGeometry y="-200" width="910" height="720" as="geometry">
            <mxRectangle x="340" y="480" width="170" height="30" as="alternateBounds" />
          </mxGeometry>
        </mxCell>
        <mxCell id="BFUSjsGuw__ukXtsEylR-12" value="Gateway&lt;br&gt;192.168.0.1" style="shape=mxgraph.cisco.hubs_and_gateways.generic_gateway;sketch=0;html=1;pointerEvents=1;dashed=0;fillColor=#036897;strokeColor=#ffffff;strokeWidth=2;verticalLabelPosition=bottom;verticalAlign=top;align=center;outlineConnect=0;movable=1;resizable=1;rotatable=1;deletable=1;editable=1;locked=0;connectable=1;points=[[0,0.5,0,0,0],[0.05,0.28,0,0,0],[0.05,0.73,0,0,0],[0.12,0.06,0,0,0],[0.12,0.94,0,0,0],[0.5,0,0,0,0],[0.5,1,0,0,0],[0.88,0.06,0,0,0],[0.88,0.94,0,0,0],[1,0.5,0,0,0]];" parent="BFUSjsGuw__ukXtsEylR-2" vertex="1">
          <mxGeometry x="380" y="609" width="66" height="74" as="geometry" />
        </mxCell>
        <mxCell id="BFUSjsGuw__ukXtsEylR-27" value="DB (Oracle, Postgres)&lt;br&gt;192.168.0.10" style="shape=mxgraph.cisco.servers.standard_host;sketch=0;html=1;pointerEvents=1;dashed=0;fillColor=#036897;strokeColor=#ffffff;strokeWidth=2;verticalLabelPosition=bottom;verticalAlign=top;align=center;outlineConnect=0;" parent="BFUSjsGuw__ukXtsEylR-2" vertex="1">
          <mxGeometry x="50" y="260" width="43" height="62" as="geometry" />
        </mxCell>
        <mxCell id="PqYLDP6LCptQQngkSeQw-4" style="edgeStyle=orthogonalEdgeStyle;rounded=0;orthogonalLoop=1;jettySize=auto;html=1;startArrow=classic;startFill=1;" parent="BFUSjsGuw__ukXtsEylR-2" source="wHRlTUKIw1xnclX0nAlL-4" target="PqYLDP6LCptQQngkSeQw-2" edge="1">
          <mxGeometry relative="1" as="geometry" />
        </mxCell>
        <mxCell id="wHRlTUKIw1xnclX0nAlL-4" value="Финансовый отдел" style="swimlane;whiteSpace=wrap;html=1;movable=1;resizable=1;rotatable=1;deletable=1;editable=1;locked=0;connectable=1;fillColor=#ffe6cc;strokeColor=#d79b00;" parent="BFUSjsGuw__ukXtsEylR-2" vertex="1">
          <mxGeometry x="270" y="322" width="260" height="180" as="geometry" />
        </mxCell>
        <mxCell id="wHRlTUKIw1xnclX0nAlL-9" value="Директор&lt;br&gt;192.168.0.20" style="shape=mxgraph.cisco.computers_and_peripherals.pc;sketch=0;html=1;pointerEvents=1;dashed=0;fillColor=#036897;strokeColor=#ffffff;strokeWidth=2;verticalLabelPosition=bottom;verticalAlign=top;align=center;outlineConnect=0;" parent="wHRlTUKIw1xnclX0nAlL-4" vertex="1">
          <mxGeometry x="180" y="34" width="40" height="40" as="geometry" />
        </mxCell>
        <mxCell id="PqYLDP6LCptQQngkSeQw-11" value="" style="edgeStyle=orthogonalEdgeStyle;rounded=0;orthogonalLoop=1;jettySize=auto;html=1;" parent="wHRlTUKIw1xnclX0nAlL-4" source="wHRlTUKIw1xnclX0nAlL-10" target="wHRlTUKIw1xnclX0nAlL-17" edge="1">
          <mxGeometry relative="1" as="geometry" />
        </mxCell>
        <mxCell id="wHRlTUKIw1xnclX0nAlL-10" value="Бухгалтер&lt;br&gt;192.168.0.21" style="shape=mxgraph.cisco.computers_and_peripherals.pc;sketch=0;html=1;pointerEvents=1;dashed=0;fillColor=#036897;strokeColor=#ffffff;strokeWidth=2;verticalLabelPosition=bottom;verticalAlign=top;align=center;outlineConnect=0;" parent="wHRlTUKIw1xnclX0nAlL-4" vertex="1">
          <mxGeometry x="70" y="34" width="40" height="40" as="geometry" />
        </mxCell>
        <mxCell id="wHRlTUKIw1xnclX0nAlL-17" value="Аналитик&lt;br&gt;192.168.0.22" style="shape=mxgraph.cisco.computers_and_peripherals.pc;sketch=0;html=1;pointerEvents=1;dashed=0;fillColor=#036897;strokeColor=#ffffff;strokeWidth=2;verticalLabelPosition=bottom;verticalAlign=top;align=center;outlineConnect=0;" parent="wHRlTUKIw1xnclX0nAlL-4" vertex="1">
          <mxGeometry x="20" y="92" width="40" height="40" as="geometry" />
        </mxCell>
        <mxCell id="wHRlTUKIw1xnclX0nAlL-13" value="ERP Server&lt;br&gt;192.168.0.11" style="shape=mxgraph.cisco.servers.fileserver;sketch=0;html=1;pointerEvents=1;dashed=0;fillColor=#036897;strokeColor=#ffffff;strokeWidth=2;verticalLabelPosition=bottom;verticalAlign=top;align=center;outlineConnect=0;" parent="BFUSjsGuw__ukXtsEylR-2" vertex="1">
          <mxGeometry x="50" y="370" width="43" height="62" as="geometry" />
        </mxCell>
        <mxCell id="PqYLDP6LCptQQngkSeQw-7" style="edgeStyle=orthogonalEdgeStyle;rounded=0;orthogonalLoop=1;jettySize=auto;html=1;entryX=1;entryY=0;entryDx=0;entryDy=0;entryPerimeter=0;exitX=0.5;exitY=1;exitDx=0;exitDy=0;startArrow=classic;startFill=1;" parent="BFUSjsGuw__ukXtsEylR-2" source="wHRlTUKIw1xnclX0nAlL-39" target="PqYLDP6LCptQQngkSeQw-2" edge="1">
          <mxGeometry relative="1" as="geometry">
            <mxPoint x="570" y="540" as="targetPoint" />
          </mxGeometry>
        </mxCell>
        <mxCell id="wHRlTUKIw1xnclX0nAlL-39" value="Отдел маркетинга" style="swimlane;whiteSpace=wrap;html=1;fillColor=#f8cecc;strokeColor=#b85450;" parent="BFUSjsGuw__ukXtsEylR-2" vertex="1">
          <mxGeometry x="540" y="322" width="260" height="180" as="geometry" />
        </mxCell>
        <mxCell id="gI3BMYjENLLatV8nJ0et-4" value="СММ&lt;br&gt;192.168.0.33" style="shape=mxgraph.cisco.computers_and_peripherals.pc;sketch=0;html=1;pointerEvents=1;dashed=0;fillColor=#036897;strokeColor=#ffffff;strokeWidth=2;verticalLabelPosition=bottom;verticalAlign=top;align=center;outlineConnect=0;" parent="wHRlTUKIw1xnclX0nAlL-39" vertex="1">
          <mxGeometry x="20" y="40" width="40" height="40" as="geometry" />
        </mxCell>
        <mxCell id="gI3BMYjENLLatV8nJ0et-5" value="Директор&lt;br&gt;192.168.0.30" style="shape=mxgraph.cisco.computers_and_peripherals.pc;sketch=0;html=1;pointerEvents=1;dashed=0;fillColor=#036897;strokeColor=#ffffff;strokeWidth=2;verticalLabelPosition=bottom;verticalAlign=top;align=center;outlineConnect=0;" parent="wHRlTUKIw1xnclX0nAlL-39" vertex="1">
          <mxGeometry x="200" y="40" width="40" height="40" as="geometry" />
        </mxCell>
        <mxCell id="wHRlTUKIw1xnclX0nAlL-43" value="Mesh Wi-Fi&lt;br&gt;192.168.0.3" style="shape=mxgraph.cisco.routers.wireless_router;html=1;pointerEvents=1;dashed=0;fillColor=#036897;strokeColor=#ffffff;strokeWidth=2;verticalLabelPosition=bottom;verticalAlign=top;align=center;outlineConnect=0;" parent="BFUSjsGuw__ukXtsEylR-2" vertex="1">
          <mxGeometry x="640" y="558" width="78" height="77" as="geometry" />
        </mxCell>
        <mxCell id="gI3BMYjENLLatV8nJ0et-10" value="Отдел кадров" style="swimlane;whiteSpace=wrap;html=1;fillColor=#e1d5e7;strokeColor=#9673a6;" parent="BFUSjsGuw__ukXtsEylR-2" vertex="1">
          <mxGeometry x="270" y="30" width="260" height="180" as="geometry" />
        </mxCell>
        <mxCell id="gI3BMYjENLLatV8nJ0et-23" value="Кадровик 1&lt;br&gt;192.168.0.50" style="shape=mxgraph.cisco.computers_and_peripherals.pc;sketch=0;html=1;pointerEvents=1;dashed=0;fillColor=#036897;strokeColor=#ffffff;strokeWidth=2;verticalLabelPosition=bottom;verticalAlign=top;align=center;outlineConnect=0;" parent="gI3BMYjENLLatV8nJ0et-10" vertex="1">
          <mxGeometry x="20" y="30" width="40" height="40" as="geometry" />
        </mxCell>
        <mxCell id="gI3BMYjENLLatV8nJ0et-24" value="Кадровик 2&lt;br&gt;192.168.0.51" style="shape=mxgraph.cisco.computers_and_peripherals.pc;sketch=0;html=1;pointerEvents=1;dashed=0;fillColor=#036897;strokeColor=#ffffff;strokeWidth=2;verticalLabelPosition=bottom;verticalAlign=top;align=center;outlineConnect=0;" parent="gI3BMYjENLLatV8nJ0et-10" vertex="1">
          <mxGeometry x="200" y="30" width="40" height="40" as="geometry" />
        </mxCell>
        <mxCell id="gI3BMYjENLLatV8nJ0et-11" value="ИТ отдел" style="swimlane;whiteSpace=wrap;html=1;fillColor=#dae8fc;strokeColor=#6c8ebf;" parent="BFUSjsGuw__ukXtsEylR-2" vertex="1">
          <mxGeometry x="540" y="30" width="360" height="180" as="geometry" />
        </mxCell>
        <mxCell id="gI3BMYjENLLatV8nJ0et-15" value="Сис. админ.&lt;br&gt;192.168.0.40" style="shape=mxgraph.cisco.computers_and_peripherals.pc;sketch=0;html=1;pointerEvents=1;dashed=0;fillColor=#036897;strokeColor=#ffffff;strokeWidth=2;verticalLabelPosition=bottom;verticalAlign=top;align=center;outlineConnect=0;" parent="gI3BMYjENLLatV8nJ0et-11" vertex="1">
          <mxGeometry x="20" y="30" width="40" height="40" as="geometry" />
        </mxCell>
        <mxCell id="gI3BMYjENLLatV8nJ0et-16" value="Техн. спец. 1Л&lt;br&gt;192.168.0.41" style="shape=mxgraph.cisco.computers_and_peripherals.pc;sketch=0;html=1;pointerEvents=1;dashed=0;fillColor=#036897;strokeColor=#ffffff;strokeWidth=2;verticalLabelPosition=bottom;verticalAlign=top;align=center;outlineConnect=0;" parent="gI3BMYjENLLatV8nJ0et-11" vertex="1">
          <mxGeometry x="100" y="30" width="40" height="40" as="geometry" />
        </mxCell>
        <mxCell id="gI3BMYjENLLatV8nJ0et-29" value="Техн. спец. 2Л&lt;br&gt;192.168.0.42" style="shape=mxgraph.cisco.computers_and_peripherals.pc;sketch=0;html=1;pointerEvents=1;dashed=0;fillColor=#036897;strokeColor=#ffffff;strokeWidth=2;verticalLabelPosition=bottom;verticalAlign=top;align=center;outlineConnect=0;" parent="gI3BMYjENLLatV8nJ0et-11" vertex="1">
          <mxGeometry x="190" y="30" width="40" height="40" as="geometry" />
        </mxCell>
        <mxCell id="gI3BMYjENLLatV8nJ0et-45" value="Техн. спец. 3Л&lt;br&gt;192.168.0.43" style="shape=mxgraph.cisco.computers_and_peripherals.pc;sketch=0;html=1;pointerEvents=1;dashed=0;fillColor=#036897;strokeColor=#ffffff;strokeWidth=2;verticalLabelPosition=bottom;verticalAlign=top;align=center;outlineConnect=0;" parent="gI3BMYjENLLatV8nJ0et-11" vertex="1">
          <mxGeometry x="280" y="30" width="40" height="40" as="geometry" />
        </mxCell>
        <mxCell id="gI3BMYjENLLatV8nJ0et-14" value="Отдел логистики" style="swimlane;whiteSpace=wrap;html=1;fillColor=#d5e8d4;strokeColor=#82b366;" parent="BFUSjsGuw__ukXtsEylR-2" vertex="1">
          <mxGeometry x="10" y="30" width="250" height="180" as="geometry" />
        </mxCell>
        <mxCell id="gI3BMYjENLLatV8nJ0et-47" value="Сотрудник 1&lt;br&gt;192.168.0.50" style="shape=mxgraph.cisco.computers_and_peripherals.pc;sketch=0;html=1;pointerEvents=1;dashed=0;fillColor=#036897;strokeColor=#ffffff;strokeWidth=2;verticalLabelPosition=bottom;verticalAlign=top;align=center;outlineConnect=0;" parent="gI3BMYjENLLatV8nJ0et-14" vertex="1">
          <mxGeometry x="20" y="30" width="40" height="40" as="geometry" />
        </mxCell>
        <mxCell id="gI3BMYjENLLatV8nJ0et-48" value="Сотрудник 2&lt;br&gt;192.168.0.51" style="shape=mxgraph.cisco.computers_and_peripherals.pc;sketch=0;html=1;pointerEvents=1;dashed=0;fillColor=#036897;strokeColor=#ffffff;strokeWidth=2;verticalLabelPosition=bottom;verticalAlign=top;align=center;outlineConnect=0;" parent="gI3BMYjENLLatV8nJ0et-14" vertex="1">
          <mxGeometry x="96" y="30" width="40" height="40" as="geometry" />
        </mxCell>
        <mxCell id="gI3BMYjENLLatV8nJ0et-49" value="Сотрудник3&lt;br&gt;192.168.0.52" style="shape=mxgraph.cisco.computers_and_peripherals.pc;sketch=0;html=1;pointerEvents=1;dashed=0;fillColor=#036897;strokeColor=#ffffff;strokeWidth=2;verticalLabelPosition=bottom;verticalAlign=top;align=center;outlineConnect=0;" parent="gI3BMYjENLLatV8nJ0et-14" vertex="1">
          <mxGeometry x="170" y="30" width="40" height="40" as="geometry" />
        </mxCell>
        <mxCell id="gI3BMYjENLLatV8nJ0et-50" value="DHCP/DNS/ActiveDirectory&lt;br&gt;192.168.0.4" style="shape=mxgraph.cisco.servers.fileserver;sketch=0;html=1;pointerEvents=1;dashed=0;fillColor=#036897;strokeColor=#ffffff;strokeWidth=2;verticalLabelPosition=bottom;verticalAlign=top;align=center;outlineConnect=0;" parent="BFUSjsGuw__ukXtsEylR-2" vertex="1">
          <mxGeometry x="50" y="590" width="43" height="62" as="geometry" />
        </mxCell>
        <mxCell id="gI3BMYjENLLatV8nJ0et-54" style="edgeStyle=orthogonalEdgeStyle;rounded=0;orthogonalLoop=1;jettySize=auto;html=1;startArrow=classic;startFill=1;entryX=0.12;entryY=0.06;entryDx=0;entryDy=0;entryPerimeter=0;" parent="BFUSjsGuw__ukXtsEylR-2" source="gI3BMYjENLLatV8nJ0et-51" target="BFUSjsGuw__ukXtsEylR-12" edge="1">
          <mxGeometry relative="1" as="geometry" />
        </mxCell>
        <mxCell id="gI3BMYjENLLatV8nJ0et-51" value="L2 Switch 16-port" style="shape=mxgraph.cisco.switches.layer_2_remote_switch;sketch=0;html=1;pointerEvents=1;dashed=0;fillColor=#036897;strokeColor=#ffffff;strokeWidth=2;verticalLabelPosition=bottom;verticalAlign=top;align=center;outlineConnect=0;direction=east;" parent="BFUSjsGuw__ukXtsEylR-2" vertex="1">
          <mxGeometry x="200" y="569" width="51" height="31" as="geometry" />
        </mxCell>
        <mxCell id="gI3BMYjENLLatV8nJ0et-55" value="" style="endArrow=classic;startArrow=classic;html=1;rounded=0;entryX=1;entryY=0.5;entryDx=0;entryDy=0;entryPerimeter=0;" parent="BFUSjsGuw__ukXtsEylR-2" source="gI3BMYjENLLatV8nJ0et-51" target="BFUSjsGuw__ukXtsEylR-27" edge="1">
          <mxGeometry width="50" height="50" relative="1" as="geometry">
            <mxPoint x="340" y="480" as="sourcePoint" />
            <mxPoint x="390" y="430" as="targetPoint" />
            <Array as="points">
              <mxPoint x="226" y="290" />
            </Array>
          </mxGeometry>
        </mxCell>
        <mxCell id="gI3BMYjENLLatV8nJ0et-60" value="" style="endArrow=classic;startArrow=classic;html=1;rounded=0;exitX=1;exitY=0.5;exitDx=0;exitDy=0;exitPerimeter=0;entryX=0;entryY=0.5;entryDx=0;entryDy=0;entryPerimeter=0;" parent="BFUSjsGuw__ukXtsEylR-2" source="BFUSjsGuw__ukXtsEylR-12" edge="1">
          <mxGeometry width="50" height="50" relative="1" as="geometry">
            <mxPoint x="500" y="640" as="sourcePoint" />
            <mxPoint x="505" y="659.0000000000002" as="targetPoint" />
          </mxGeometry>
        </mxCell>
        <mxCell id="gI3BMYjENLLatV8nJ0et-61" value="" style="endArrow=classic;startArrow=classic;html=1;rounded=0;entryX=1;entryY=0.5;entryDx=0;entryDy=0;entryPerimeter=0;exitX=0;exitY=0;exitDx=0;exitDy=0;exitPerimeter=0;" parent="BFUSjsGuw__ukXtsEylR-2" source="gI3BMYjENLLatV8nJ0et-51" target="wHRlTUKIw1xnclX0nAlL-13" edge="1">
          <mxGeometry width="50" height="50" relative="1" as="geometry">
            <mxPoint x="510" y="440" as="sourcePoint" />
            <mxPoint x="560" y="390" as="targetPoint" />
            <Array as="points">
              <mxPoint x="200" y="401" />
            </Array>
          </mxGeometry>
        </mxCell>
        <mxCell id="gI3BMYjENLLatV8nJ0et-64" value="" style="endArrow=classic;startArrow=classic;html=1;rounded=0;entryX=1;entryY=0.5;entryDx=0;entryDy=0;entryPerimeter=0;" parent="BFUSjsGuw__ukXtsEylR-2" source="gI3BMYjENLLatV8nJ0et-51" target="gI3BMYjENLLatV8nJ0et-50" edge="1">
          <mxGeometry width="50" height="50" relative="1" as="geometry">
            <mxPoint x="130" y="660" as="sourcePoint" />
            <mxPoint x="180" y="610" as="targetPoint" />
            <Array as="points">
              <mxPoint x="226" y="620" />
            </Array>
          </mxGeometry>
        </mxCell>
        <mxCell id="gI3BMYjENLLatV8nJ0et-65" value="" style="endArrow=classic;startArrow=classic;html=1;rounded=0;" parent="BFUSjsGuw__ukXtsEylR-2" source="BFUSjsGuw__ukXtsEylR-12" target="wHRlTUKIw1xnclX0nAlL-43" edge="1">
          <mxGeometry width="50" height="50" relative="1" as="geometry">
            <mxPoint x="520" y="710" as="sourcePoint" />
            <mxPoint x="570" y="660" as="targetPoint" />
          </mxGeometry>
        </mxCell>
        <mxCell id="PqYLDP6LCptQQngkSeQw-2" value="L2 Switch 24-port" style="shape=mxgraph.cisco.switches.layer_2_remote_switch;sketch=0;html=1;pointerEvents=1;dashed=0;fillColor=#036897;strokeColor=#ffffff;strokeWidth=2;verticalLabelPosition=bottom;verticalAlign=top;align=center;outlineConnect=0;" parent="BFUSjsGuw__ukXtsEylR-2" vertex="1">
          <mxGeometry x="470" y="540" width="50" height="29" as="geometry" />
        </mxCell>
        <mxCell id="PqYLDP6LCptQQngkSeQw-9" style="edgeStyle=orthogonalEdgeStyle;rounded=0;orthogonalLoop=1;jettySize=auto;html=1;entryX=0.88;entryY=0.06;entryDx=0;entryDy=0;entryPerimeter=0;" parent="BFUSjsGuw__ukXtsEylR-2" source="PqYLDP6LCptQQngkSeQw-2" target="BFUSjsGuw__ukXtsEylR-12" edge="1">
          <mxGeometry relative="1" as="geometry">
            <Array as="points">
              <mxPoint x="495" y="600" />
              <mxPoint x="438" y="600" />
            </Array>
          </mxGeometry>
        </mxCell>
        <mxCell id="PqYLDP6LCptQQngkSeQw-10" style="edgeStyle=orthogonalEdgeStyle;rounded=0;orthogonalLoop=1;jettySize=auto;html=1;entryX=0;entryY=0.5;entryDx=0;entryDy=0;entryPerimeter=0;startArrow=classic;startFill=1;" parent="BFUSjsGuw__ukXtsEylR-2" source="gI3BMYjENLLatV8nJ0et-14" target="PqYLDP6LCptQQngkSeQw-2" edge="1">
          <mxGeometry relative="1" as="geometry">
            <Array as="points">
              <mxPoint x="135" y="240" />
              <mxPoint x="240" y="240" />
              <mxPoint x="240" y="555" />
            </Array>
          </mxGeometry>
        </mxCell>
        <mxCell id="PqYLDP6LCptQQngkSeQw-12" style="edgeStyle=orthogonalEdgeStyle;rounded=0;orthogonalLoop=1;jettySize=auto;html=1;entryX=0;entryY=0;entryDx=0;entryDy=0;entryPerimeter=0;startArrow=classic;startFill=1;" parent="BFUSjsGuw__ukXtsEylR-2" source="gI3BMYjENLLatV8nJ0et-10" target="PqYLDP6LCptQQngkSeQw-2" edge="1">
          <mxGeometry relative="1" as="geometry">
            <Array as="points">
              <mxPoint x="400" y="240" />
              <mxPoint x="250" y="240" />
              <mxPoint x="250" y="540" />
            </Array>
          </mxGeometry>
        </mxCell>
        <mxCell id="PqYLDP6LCptQQngkSeQw-13" style="edgeStyle=orthogonalEdgeStyle;rounded=0;orthogonalLoop=1;jettySize=auto;html=1;entryX=1;entryY=0.5;entryDx=0;entryDy=0;entryPerimeter=0;startArrow=classic;startFill=1;" parent="BFUSjsGuw__ukXtsEylR-2" source="gI3BMYjENLLatV8nJ0et-11" target="PqYLDP6LCptQQngkSeQw-2" edge="1">
          <mxGeometry relative="1" as="geometry">
            <Array as="points">
              <mxPoint x="820" y="555" />
            </Array>
          </mxGeometry>
        </mxCell>
        <mxCell id="BFUSjsGuw__ukXtsEylR-3" value="ЛС Почтового отделения 0" style="swimlane;whiteSpace=wrap;html=1;" parent="1" vertex="1">
          <mxGeometry x="120" y="770" width="300" height="230" as="geometry">
            <mxRectangle x="120" y="770" width="200" height="40" as="alternateBounds" />
          </mxGeometry>
        </mxCell>
        <mxCell id="BFUSjsGuw__ukXtsEylR-4" value="Workstation&lt;br&gt;" style="shape=mxgraph.cisco.computers_and_peripherals.pc;sketch=0;html=1;pointerEvents=1;dashed=0;fillColor=#036897;strokeColor=#ffffff;strokeWidth=2;verticalLabelPosition=bottom;verticalAlign=top;align=center;outlineConnect=0;" parent="BFUSjsGuw__ukXtsEylR-3" vertex="1">
          <mxGeometry x="10" y="122" width="78" height="70" as="geometry" />
        </mxCell>
        <mxCell id="BFUSjsGuw__ukXtsEylR-8" value="IP Camera&lt;br&gt;" style="points=[[0.015,0.015,0],[0.5,0,0],[0.985,0.015,0],[1,0.22,0],[0.985,0.43,0],[0.73,0.85,0],[0.5,1,0],[0.285,0.85,0],[0.015,0.43,0],[0,0.22,0]];verticalLabelPosition=bottom;sketch=0;html=1;verticalAlign=top;aspect=fixed;align=center;pointerEvents=1;shape=mxgraph.cisco19.surveillance_camera;fillColor=#005073;strokeColor=none;" parent="BFUSjsGuw__ukXtsEylR-3" vertex="1">
          <mxGeometry x="226" y="132" width="64" height="50" as="geometry" />
        </mxCell>
        <mxCell id="BFUSjsGuw__ukXtsEylR-10" style="edgeStyle=orthogonalEdgeStyle;rounded=0;orthogonalLoop=1;jettySize=auto;html=1;startArrow=classic;startFill=1;" parent="BFUSjsGuw__ukXtsEylR-3" source="BFUSjsGuw__ukXtsEylR-9" target="BFUSjsGuw__ukXtsEylR-4" edge="1">
          <mxGeometry relative="1" as="geometry" />
        </mxCell>
        <mxCell id="BFUSjsGuw__ukXtsEylR-11" style="edgeStyle=orthogonalEdgeStyle;rounded=0;orthogonalLoop=1;jettySize=auto;html=1;startArrow=classic;startFill=1;" parent="BFUSjsGuw__ukXtsEylR-3" source="BFUSjsGuw__ukXtsEylR-9" target="BFUSjsGuw__ukXtsEylR-8" edge="1">
          <mxGeometry relative="1" as="geometry" />
        </mxCell>
        <mxCell id="BFUSjsGuw__ukXtsEylR-9" value="Router&lt;br&gt;" style="shape=mxgraph.cisco.routers.router;sketch=0;html=1;pointerEvents=1;dashed=0;fillColor=#036897;strokeColor=#ffffff;strokeWidth=2;verticalLabelPosition=bottom;verticalAlign=top;align=center;outlineConnect=0;" parent="BFUSjsGuw__ukXtsEylR-3" vertex="1">
          <mxGeometry x="110" y="38" width="78" height="53" as="geometry" />
        </mxCell>
        <mxCell id="BFUSjsGuw__ukXtsEylR-18" value="ЛС Почтового отделения N" style="swimlane;whiteSpace=wrap;html=1;" parent="1" vertex="1">
          <mxGeometry x="520" y="770" width="300" height="230" as="geometry">
            <mxRectangle x="520" y="770" width="200" height="40" as="alternateBounds" />
          </mxGeometry>
        </mxCell>
        <mxCell id="BFUSjsGuw__ukXtsEylR-19" value="Workstation&lt;br&gt;" style="shape=mxgraph.cisco.computers_and_peripherals.pc;sketch=0;html=1;pointerEvents=1;dashed=0;fillColor=#036897;strokeColor=#ffffff;strokeWidth=2;verticalLabelPosition=bottom;verticalAlign=top;align=center;outlineConnect=0;" parent="BFUSjsGuw__ukXtsEylR-18" vertex="1">
          <mxGeometry x="10" y="134" width="78" height="70" as="geometry" />
        </mxCell>
        <mxCell id="BFUSjsGuw__ukXtsEylR-20" value="IP Camera&lt;br&gt;" style="points=[[0.015,0.015,0],[0.5,0,0],[0.985,0.015,0],[1,0.22,0],[0.985,0.43,0],[0.73,0.85,0],[0.5,1,0],[0.285,0.85,0],[0.015,0.43,0],[0,0.22,0]];verticalLabelPosition=bottom;sketch=0;html=1;verticalAlign=top;aspect=fixed;align=center;pointerEvents=1;shape=mxgraph.cisco19.surveillance_camera;fillColor=#005073;strokeColor=none;" parent="BFUSjsGuw__ukXtsEylR-18" vertex="1">
          <mxGeometry x="226" y="144" width="64" height="50" as="geometry" />
        </mxCell>
        <mxCell id="BFUSjsGuw__ukXtsEylR-21" style="edgeStyle=orthogonalEdgeStyle;rounded=0;orthogonalLoop=1;jettySize=auto;html=1;startArrow=block;startFill=1;" parent="BFUSjsGuw__ukXtsEylR-18" source="BFUSjsGuw__ukXtsEylR-23" target="BFUSjsGuw__ukXtsEylR-19" edge="1">
          <mxGeometry relative="1" as="geometry" />
        </mxCell>
        <mxCell id="BFUSjsGuw__ukXtsEylR-22" style="edgeStyle=orthogonalEdgeStyle;rounded=0;orthogonalLoop=1;jettySize=auto;html=1;startArrow=block;startFill=1;" parent="BFUSjsGuw__ukXtsEylR-18" source="BFUSjsGuw__ukXtsEylR-23" target="BFUSjsGuw__ukXtsEylR-20" edge="1">
          <mxGeometry relative="1" as="geometry" />
        </mxCell>
        <mxCell id="BFUSjsGuw__ukXtsEylR-23" value="Router&lt;br&gt;" style="shape=mxgraph.cisco.routers.router;sketch=0;html=1;pointerEvents=1;dashed=0;fillColor=#036897;strokeColor=#ffffff;strokeWidth=2;verticalLabelPosition=bottom;verticalAlign=top;align=center;outlineConnect=0;" parent="BFUSjsGuw__ukXtsEylR-18" vertex="1">
          <mxGeometry x="110" y="50" width="78" height="53" as="geometry" />
        </mxCell>
        <mxCell id="BFUSjsGuw__ukXtsEylR-28" value="WAN&lt;br&gt;" style="ellipse;shape=cloud;whiteSpace=wrap;html=1;" parent="1" vertex="1">
          <mxGeometry x="240" y="530" width="380" height="190" as="geometry" />
        </mxCell>
        <mxCell id="BFUSjsGuw__ukXtsEylR-46" style="rounded=0;orthogonalLoop=1;jettySize=auto;html=1;endArrow=blockThin;endFill=1;startArrow=blockThin;startFill=1;exitX=0.5;exitY=1;exitDx=0;exitDy=0;exitPerimeter=0;" parent="1" source="BFUSjsGuw__ukXtsEylR-12" edge="1">
          <mxGeometry relative="1" as="geometry">
            <Array as="points">
              <mxPoint x="410" y="547" />
            </Array>
            <mxPoint x="410.00000000000045" y="500" as="sourcePoint" />
            <mxPoint x="410.3556918059985" y="547.3652191255321" as="targetPoint" />
          </mxGeometry>
        </mxCell>
        <mxCell id="ctp64JIaLgysh2WZXFKC-14" value="" style="endArrow=classic;startArrow=classic;html=1;rounded=0;exitX=0.094;exitY=0.637;exitDx=0;exitDy=0;exitPerimeter=0;" parent="1" source="BFUSjsGuw__ukXtsEylR-28" target="E-97o8KTaBl7Lajbc1eS-1" edge="1">
          <mxGeometry width="50" height="50" relative="1" as="geometry">
            <mxPoint x="534.02" y="660" as="sourcePoint" />
            <mxPoint x="370" y="670.9890569485333" as="targetPoint" />
          </mxGeometry>
        </mxCell>
        <mxCell id="wHRlTUKIw1xnclX0nAlL-12" value="Доступ для пользователей" style="edgeLabel;html=1;align=center;verticalAlign=middle;resizable=0;points=[];" parent="ctp64JIaLgysh2WZXFKC-14" vertex="1" connectable="0">
          <mxGeometry x="0.062" y="3" relative="1" as="geometry">
            <mxPoint as="offset" />
          </mxGeometry>
        </mxCell>
        <mxCell id="E-97o8KTaBl7Lajbc1eS-1" value="Web-Site &lt;br&gt;on Dedicated Server" style="shape=mxgraph.cisco.servers.www_server;sketch=0;html=1;pointerEvents=1;dashed=0;fillColor=#036897;strokeColor=#ffffff;strokeWidth=2;verticalLabelPosition=bottom;verticalAlign=top;align=center;outlineConnect=0;" parent="1" vertex="1">
          <mxGeometry x="90" y="591.5" width="66" height="67" as="geometry" />
        </mxCell>
        <mxCell id="wHRlTUKIw1xnclX0nAlL-29" value="" style="endArrow=none;dashed=1;html=1;rounded=0;entryX=0.12;entryY=0.94;entryDx=0;entryDy=0;entryPerimeter=0;" parent="1" source="E-97o8KTaBl7Lajbc1eS-1" target="BFUSjsGuw__ukXtsEylR-12" edge="1">
          <mxGeometry width="50" height="50" relative="1" as="geometry">
            <mxPoint x="340" y="630" as="sourcePoint" />
            <mxPoint x="512.2748344370862" y="483" as="targetPoint" />
            <Array as="points">
              <mxPoint x="310" y="610" />
            </Array>
          </mxGeometry>
        </mxCell>
        <mxCell id="wHRlTUKIw1xnclX0nAlL-30" value="VPN" style="edgeLabel;html=1;align=center;verticalAlign=middle;resizable=0;points=[];" parent="wHRlTUKIw1xnclX0nAlL-29" vertex="1" connectable="0">
          <mxGeometry x="0.09" y="1" relative="1" as="geometry">
            <mxPoint as="offset" />
          </mxGeometry>
        </mxCell>
        <mxCell id="gI3BMYjENLLatV8nJ0et-34" value="" style="endArrow=classic;startArrow=classic;html=1;rounded=0;exitX=0.5;exitY=0;exitDx=0;exitDy=0;" parent="1" source="BFUSjsGuw__ukXtsEylR-18" target="BFUSjsGuw__ukXtsEylR-12" edge="1">
          <mxGeometry width="50" height="50" relative="1" as="geometry">
            <mxPoint x="410" y="600" as="sourcePoint" />
            <mxPoint x="557.5370110260556" y="483" as="targetPoint" />
          </mxGeometry>
        </mxCell>
        <mxCell id="gI3BMYjENLLatV8nJ0et-35" value="VPN Tunnel" style="edgeLabel;html=1;align=center;verticalAlign=middle;resizable=0;points=[];" parent="gI3BMYjENLLatV8nJ0et-34" vertex="1" connectable="0">
          <mxGeometry x="0.3084" y="-1" relative="1" as="geometry">
            <mxPoint x="8" y="19" as="offset" />
          </mxGeometry>
        </mxCell>
        <mxCell id="gI3BMYjENLLatV8nJ0et-36" value="" style="endArrow=classic;startArrow=classic;html=1;rounded=0;" parent="1" source="BFUSjsGuw__ukXtsEylR-3" target="BFUSjsGuw__ukXtsEylR-12" edge="1">
          <mxGeometry width="50" height="50" relative="1" as="geometry">
            <mxPoint x="480" y="640" as="sourcePoint" />
            <mxPoint x="530" y="590" as="targetPoint" />
          </mxGeometry>
        </mxCell>
        <mxCell id="gI3BMYjENLLatV8nJ0et-37" value="VPN Tunnel" style="edgeLabel;html=1;align=center;verticalAlign=middle;resizable=0;points=[];" parent="gI3BMYjENLLatV8nJ0et-36" vertex="1" connectable="0">
          <mxGeometry x="0.1478" y="1" relative="1" as="geometry">
            <mxPoint y="20" as="offset" />
          </mxGeometry>
        </mxCell>
      </root>
    </mxGraphModel>
  </diagram>
</mxfile>
